<svg width="496" height="720" viewBox="0 0 496 720" fill="none" xmlns="http://www.w3.org/2000/svg">
<g clip-path="url(#clip0_79_18240)">
<rect width="496" height="720" fill="white"/>
<mask id="mask0_79_18240" style="mask-type:alpha" maskUnits="userSpaceOnUse" x="0" y="0" width="496" height="720">
<rect width="496" height="720" fill="#F8F7FF"/>
</mask>
<g mask="url(#mask0_79_18240)">
<g filter="url(#filter0_f_79_18240)">
<path d="M491.4 398.244L532.398 -65.1387L414.211 -526.397L284.982 -488.623L178.668 -496.877L300.22 -110.273L90.8436 -353.911L246.291 155.281L365.713 37.5638L491.4 398.244Z" fill="url(#paint0_radial_79_18240)" fill-opacity="0.8"/>
</g>
<g filter="url(#filter1_f_79_18240)">
<path d="M286.331 720.962L274.681 246.297L178.3 307.74L-8.81415 26.9243L-111.544 99.0382L47.352 377.823L-179.95 302.068L40.6205 741.533L126.323 470.12L286.331 720.962Z" fill="url(#paint1_radial_79_18240)" fill-opacity="0.8"/>
</g>
</g>
</g>
<defs>
<filter id="filter0_f_79_18240" x="-116.485" y="-733.725" width="856.21" height="1339.3" filterUnits="userSpaceOnUse" color-interpolation-filters="sRGB">
<feFlood flood-opacity="0" result="BackgroundImageFix"/>
<feBlend mode="normal" in="SourceGraphic" in2="BackgroundImageFix" result="shape"/>
<feGaussianBlur stdDeviation="103.664" result="effect1_foregroundBlur_79_18240"/>
</filter>
<filter id="filter1_f_79_18240" x="-387.278" y="-180.404" width="880.938" height="1129.27" filterUnits="userSpaceOnUse" color-interpolation-filters="sRGB">
<feFlood flood-opacity="0" result="BackgroundImageFix"/>
<feBlend mode="normal" in="SourceGraphic" in2="BackgroundImageFix" result="shape"/>
<feGaussianBlur stdDeviation="103.664" result="effect1_foregroundBlur_79_18240"/>
</filter>
<radialGradient id="paint0_radial_79_18240" cx="0" cy="0" r="1" gradientUnits="userSpaceOnUse" gradientTransform="translate(276.425 -323.955) rotate(67.7633) scale(503.478 604.084)">
<stop stop-color="#FFBA11" stop-opacity="0.29"/>
<stop offset="1" stop-color="#F198D3" stop-opacity="0.44"/>
</radialGradient>
<radialGradient id="paint1_radial_79_18240" cx="0" cy="0" r="1" gradientUnits="userSpaceOnUse" gradientTransform="translate(1.08414 191.076) rotate(52.3528) scale(382.601 794.937)">
<stop stop-color="#6AF0DB"/>
<stop offset="1" stop-color="#A195EF" stop-opacity="0.47"/>
</radialGradient>
<clipPath id="clip0_79_18240">
<rect width="496" height="720" fill="white"/>
</clipPath>
</defs>
</svg>
