<svg width="20" height="20" viewBox="0 0 20 20" fill="none" xmlns="http://www.w3.org/2000/svg">
<path opacity="0.75" d="M3.28015 2.22C3.13798 2.08752 2.94993 2.0154 2.75563 2.01883C2.56133 2.02225 2.37594 2.10097 2.23853 2.23838C2.10112 2.37579 2.02241 2.56118 2.01898 2.75548C2.01555 2.94978 2.08767 3.13783 2.22015 3.28L5.44015 6.5H2.75015C2.55124 6.5 2.36048 6.57902 2.21982 6.71967C2.07917 6.86032 2.00015 7.05109 2.00015 7.25C2.00015 7.44891 2.07917 7.63968 2.21982 7.78033C2.36048 7.92098 2.55124 8 2.75015 8H7.25015C7.44907 8 7.63983 7.92098 7.78048 7.78033C7.92114 7.63968 8.00015 7.44891 8.00015 7.25V2.75C8.00015 2.55109 7.92114 2.36032 7.78048 2.21967C7.63983 2.07902 7.44907 2 7.25015 2C7.05124 2 6.86048 2.07902 6.71982 2.21967C6.57917 2.36032 6.50015 2.55109 6.50015 2.75V5.44L3.28015 2.22ZM13.5002 2.75C13.5002 2.55109 13.4211 2.36032 13.2805 2.21967C13.1398 2.07902 12.9491 2 12.7502 2C12.5512 2 12.3605 2.07902 12.2198 2.21967C12.0792 2.36032 12.0002 2.55109 12.0002 2.75V7.25C12.0002 7.664 12.3362 8 12.7502 8H17.2502C17.4491 8 17.6398 7.92098 17.7805 7.78033C17.9211 7.63968 18.0002 7.44891 18.0002 7.25C18.0002 7.05109 17.9211 6.86032 17.7805 6.71967C17.6398 6.57902 17.4491 6.5 17.2502 6.5H14.5602L17.7802 3.28C17.9126 3.13783 17.9848 2.94978 17.9813 2.75548C17.9779 2.56118 17.8992 2.37579 17.7618 2.23838C17.6244 2.10097 17.439 2.02225 17.2447 2.01883C17.0504 2.0154 16.8623 2.08752 16.7202 2.22L13.5002 5.44V2.75ZM3.28015 17.78L6.50015 14.56V17.25C6.50015 17.4489 6.57917 17.6397 6.71982 17.7803C6.86048 17.921 7.05124 18 7.25015 18C7.44907 18 7.63983 17.921 7.78048 17.7803C7.92114 17.6397 8.00015 17.4489 8.00015 17.25V12.75C8.00015 12.5511 7.92114 12.3603 7.78048 12.2197C7.63983 12.079 7.44907 12 7.25015 12H2.75015C2.55124 12 2.36048 12.079 2.21982 12.2197C2.07917 12.3603 2.00015 12.5511 2.00015 12.75C2.00015 12.9489 2.07917 13.1397 2.21982 13.2803C2.36048 13.421 2.55124 13.5 2.75015 13.5H5.44015L2.22015 16.72C2.14647 16.7887 2.08736 16.8715 2.04637 16.9635C2.00538 17.0555 1.98334 17.1548 1.98156 17.2555C1.97979 17.3562 1.99831 17.4562 2.03603 17.5496C2.07375 17.643 2.1299 17.7278 2.20112 17.799C2.27233 17.8703 2.35717 17.9264 2.45056 17.9641C2.54394 18.0018 2.64397 18.0204 2.74468 18.0186C2.84538 18.0168 2.94469 17.9948 3.03669 17.9538C3.12869 17.9128 3.21149 17.8537 3.28015 17.78ZM13.5002 14.56L16.7202 17.78C16.7888 17.8537 16.8716 17.9128 16.9636 17.9538C17.0556 17.9948 17.1549 18.0168 17.2556 18.0186C17.3563 18.0204 17.4564 18.0018 17.5498 17.9641C17.6431 17.9264 17.728 17.8703 17.7992 17.799C17.8704 17.7278 17.9266 17.643 17.9643 17.5496C18.002 17.4562 18.0205 17.3562 18.0187 17.2555C18.017 17.1548 17.9949 17.0555 17.9539 16.9635C17.9129 16.8715 17.8538 16.7887 17.7802 16.72L14.5602 13.5H17.2502C17.4491 13.5 17.6398 13.421 17.7805 13.2803C17.9211 13.1397 18.0002 12.9489 18.0002 12.75C18.0002 12.5511 17.9211 12.3603 17.7805 12.2197C17.6398 12.079 17.4491 12 17.2502 12H12.7502C12.5512 12 12.3605 12.079 12.2198 12.2197C12.0792 12.3603 12.0002 12.5511 12.0002 12.75V17.25C12.0002 17.4489 12.0792 17.6397 12.2198 17.7803C12.3605 17.921 12.5512 18 12.7502 18C12.9491 18 13.1398 17.921 13.2805 17.7803C13.4211 17.6397 13.5002 17.4489 13.5002 17.25V14.56Z" fill="#4B19D5"/>
</svg>
