<svg width="20" height="20" viewBox="0 0 20 20" fill="none" xmlns="http://www.w3.org/2000/svg">
<path opacity="0.75" fill-rule="evenodd" clip-rule="evenodd" d="M9.661 2.23699C9.75629 2.15796 9.8762 2.1147 10 2.1147C10.1238 2.1147 10.2437 2.15796 10.339 2.23699C12.3366 3.89865 14.8215 4.86375 17.417 4.986C17.534 4.98959 17.6459 5.0341 17.7335 5.11175C17.821 5.18941 17.8785 5.2953 17.896 5.41099C17.965 5.93099 18 6.46099 18 7.00099C18 12.163 14.74 16.564 10.166 18.257C10.0589 18.2965 9.94114 18.2965 9.834 18.257C5.26 16.564 2 12.163 2 7C2 6.462 2.035 5.93099 2.104 5.41099C2.12153 5.29514 2.17919 5.18912 2.26692 5.11144C2.35465 5.03376 2.46687 4.98936 2.584 4.986C5.17927 4.86325 7.66379 3.89881 9.661 2.23699ZM13.857 8.191C13.974 8.03001 14.0222 7.82915 13.991 7.63262C13.9599 7.43608 13.852 7.25996 13.691 7.14299C13.53 7.02603 13.3292 6.97782 13.1326 7.00895C12.9361 7.04008 12.76 7.14801 12.643 7.309L9.16 12.099L7.28 10.219C7.21078 10.1474 7.128 10.0903 7.03647 10.051C6.94495 10.0118 6.84653 9.99113 6.74694 9.99031C6.64736 9.98949 6.54861 10.0085 6.45646 10.0463C6.3643 10.084 6.28059 10.1398 6.2102 10.2102C6.13982 10.2807 6.08417 10.3644 6.0465 10.4566C6.00883 10.5488 5.9899 10.6476 5.99081 10.7472C5.99173 10.8467 6.01246 10.9451 6.05181 11.0366C6.09116 11.1281 6.14834 11.2108 6.22 11.28L8.72 13.78C8.79663 13.8567 8.88896 13.9158 8.99065 13.9534C9.09233 13.9909 9.20094 14.006 9.30901 13.9975C9.41708 13.9891 9.52203 13.9573 9.61663 13.9044C9.71123 13.8515 9.79324 13.7787 9.857 13.691L13.857 8.191Z" fill="#4B19D5"/>
</svg>
