<svg width="24" height="24" viewBox="0 0 24 24" fill="none" xmlns="http://www.w3.org/2000/svg">
<path d="M11.0586 8.02539C10.5231 8.33301 10.0902 8.60075 9.75977 8.82861C9.42936 9.04508 9.09326 9.33561 8.75146 9.7002C8.43245 10.042 8.1875 10.4009 8.0166 10.7769C7.8457 11.1528 7.72607 11.637 7.65771 12.2295H8.47803C9.18441 12.2295 9.73698 12.4061 10.1357 12.7593C10.5459 13.1011 10.751 13.6081 10.751 14.2803C10.751 14.7588 10.5687 15.2088 10.2041 15.6304C9.85091 16.0405 9.361 16.2456 8.73438 16.2456C7.75456 16.2456 7.05387 15.9266 6.63232 15.2886C6.21077 14.6392 6 13.7904 6 12.7422C6 12.0016 6.15951 11.3294 6.47852 10.7256C6.79753 10.1104 7.1849 9.56348 7.64062 9.08496C8.10775 8.59505 8.60335 8.1792 9.12744 7.8374C9.65153 7.49561 10.0902 7.21647 10.4434 7L11.0586 8.02539ZM17.3818 8.02539C16.8464 8.33301 16.4134 8.60075 16.083 8.82861C15.7526 9.04508 15.4165 9.33561 15.0747 9.7002C14.7443 10.0534 14.4937 10.418 14.3228 10.7939C14.1632 11.1585 14.0493 11.637 13.981 12.2295H14.8013C15.5076 12.2295 16.0602 12.4061 16.459 12.7593C16.8691 13.1011 17.0742 13.6081 17.0742 14.2803C17.0742 14.7588 16.8919 15.2088 16.5273 15.6304C16.1742 16.0405 15.6842 16.2456 15.0576 16.2456C14.0778 16.2456 13.3771 15.9266 12.9556 15.2886C12.534 14.6392 12.3232 13.7904 12.3232 12.7422C12.3232 12.0016 12.4827 11.3294 12.8018 10.7256C13.1208 10.1104 13.5081 9.56348 13.9639 9.08496C14.431 8.59505 14.9266 8.1792 15.4507 7.8374C15.9748 7.49561 16.4134 7.21647 16.7666 7L17.3818 8.02539Z" fill="#F97FD0"/>
</svg>
