<svg width="20" height="20" viewBox="0 0 20 20" fill="none" xmlns="http://www.w3.org/2000/svg">
<path opacity="0.75" d="M11.983 1.90699C12.0175 1.74534 11.9976 1.57683 11.9264 1.42765C11.8552 1.27847 11.7368 1.15697 11.5894 1.08205C11.4421 1.00713 11.2741 0.98298 11.1117 1.01335C10.9492 1.04372 10.8013 1.12691 10.691 1.24999L2.19098 10.75C2.09446 10.8579 2.03124 10.9914 2.00895 11.1345C1.98665 11.2776 2.00624 11.424 2.06534 11.5562C2.12445 11.6883 2.22054 11.8006 2.34203 11.8793C2.46352 11.9581 2.6052 12 2.74998 12H9.32198L8.01698 18.093C7.98251 18.2546 8.00241 18.4232 8.07358 18.5723C8.14475 18.7215 8.2632 18.843 8.41054 18.9179C8.55787 18.9929 8.72582 19.017 8.8883 18.9866C9.05077 18.9563 9.19866 18.8731 9.30898 18.75L17.809 9.24999C17.9055 9.14208 17.9687 9.00854 17.991 8.86548C18.0133 8.72243 17.9937 8.57598 17.9346 8.44382C17.8755 8.31165 17.7794 8.19941 17.6579 8.12066C17.5364 8.04191 17.3948 8 17.25 7.99999H10.678L11.983 1.90699Z" fill="#4B19D5"/>
</svg>
